<?xml version="1.0" encoding="UTF-8" standalone="no"?>
<!-- Generator: Adobe Illustrator 22.0.1, SVG Export Plug-In . SVG Version: 6.00 Build 0)  -->

<svg
   xmlns:dc="http://purl.org/dc/elements/1.1/"
   xmlns:cc="http://creativecommons.org/ns#"
   xmlns:rdf="http://www.w3.org/1999/02/22-rdf-syntax-ns#"
   xmlns:svg="http://www.w3.org/2000/svg"
   xmlns="http://www.w3.org/2000/svg"
   xmlns:sodipodi="http://sodipodi.sourceforge.net/DTD/sodipodi-0.dtd"
   xmlns:inkscape="http://www.inkscape.org/namespaces/inkscape"
   version="1.1"
   id="Layer_1"
   x="0px"
   y="0px"
   viewBox="0 0 99.999996 99.999999"
   xml:space="preserve"
   sodipodi:docname="calypso.svg"
   width="100"
   height="100"
   inkscape:version="0.92.3 (2405546, 2018-03-11)"><metadata
   id="metadata57"><rdf:RDF><cc:Work
       rdf:about=""><dc:format>image/svg+xml</dc:format><dc:type
         rdf:resource="http://purl.org/dc/dcmitype/StillImage" /><dc:title></dc:title></cc:Work></rdf:RDF></metadata><defs
   id="defs55" /><sodipodi:namedview
   pagecolor="#ffffff"
   bordercolor="#666666"
   borderopacity="1"
   objecttolerance="10"
   gridtolerance="10"
   guidetolerance="10"
   inkscape:pageopacity="0"
   inkscape:pageshadow="2"
   inkscape:window-width="1920"
   inkscape:window-height="1015"
   id="namedview53"
   showgrid="false"
   inkscape:measure-start="0,0"
   inkscape:measure-end="0,0"
   inkscape:zoom="2.1940145"
   inkscape:cx="52.533714"
   inkscape:cy="92.345134"
   inkscape:window-x="0"
   inkscape:window-y="0"
   inkscape:window-maximized="1"
   inkscape:current-layer="Layer_1" />
<style
   type="text/css"
   id="style2">
	.st0{fill:#A0E0C5;}
	.st1{fill:#10AE8C;}
</style>

<g
   id="g50"
   transform="matrix(0.98737176,0,0,0.84502756,-232.70536,2.1105228)">
	<g
   id="g8">
		
		<g
   id="g4579"><path
     style="fill:#a0e0c5"
     inkscape:connector-curvature="0"
     id="path4"
     d="m 280.36943,26.41571 c 5.9,1.2 11,5.5 13.2,11 1.3,3.2 1.8,6.9 4.3,9.2 2,1.8 4.9,2.3 7.5,1.6 2.6,-0.7 4.8,-2.5 6.3,-4.7 3.6,-5.2 3.2,-12.5 0,-17.9 -3.2,-5.4 -9,-9 -15.2,-10.6 -10.1,-2.5 -21.5,0.5 -28.6,8.2 -1.4,1.5 -2.6,3.2 -3.6,5 -0.6,1 0.6,2.2 1.6,1.6 4.1,-2.3 10.1,-4.3 14.5,-3.4"
     class="st0" /><path
     style="fill:#10ae8c"
     inkscape:connector-curvature="0"
     id="path6"
     d="m 319.06943,64.01571 c -4.3,-5.9 -11.3,-5.4 -17.1,-3.4 -4.4,1.5 -8.5,3.8 -13,4.7 -10.2,2.1 -21.3,-3.8 -25.8,-13.2 -2.3,-4.8 -2.9,-10.4 -1.9,-15.6 0.2,-1.2 -1.3,-1.9 -2.1,-1 -6.7,8.3 -9.9,19.4 -8.2,30 2.2,13.3 12.1,25.1 24.8,29.5 12.7,4.4 27.8,1.3 37.7,-7.8 4.7,-4.3 8.4,-10.2 7.9,-16.9 -0.2,-2.2 -1,-4.4 -2.3,-6.3"
     class="st1" /></g>
	</g>
	<g
   id="g32">
		<g
   id="g28">
			
			
			
			
			
			
			
			
			
		</g>
		
	</g>
	<g
   id="g48">
		
		
		
		
		
		
		
	</g>
</g></svg>