<?xml version="1.0" encoding="utf-8"?>
<!-- Generator: Adobe Illustrator 22.0.1, SVG Export Plug-In . SVG Version: 6.00 Build 0)  -->
<svg version="1.1" id="Layer_1" xmlns="http://www.w3.org/2000/svg" xmlns:xlink="http://www.w3.org/1999/xlink" x="0px" y="0px"
	 viewBox="0 0 321.2 105.4" style="enable-background:new 0 0 321.2 105.4;" xml:space="preserve">
<style type="text/css">
	.st0{fill:#A0E0C5;}
	.st1{fill:#10AE8C;}
</style>
<g>
	<g>
		<path class="st0" d="M274.9,17.3c5.9,1.2,11,5.5,13.2,11c1.3,3.2,1.8,6.9,4.3,9.2c2,1.8,4.9,2.3,7.5,1.6c2.6-0.7,4.8-2.5,6.3-4.7
			c3.6-5.2,3.2-12.5,0-17.9c-3.2-5.4-9-9-15.2-10.6c-10.1-2.5-21.5,0.5-28.6,8.2c-1.4,1.5-2.6,3.2-3.6,5c-0.6,1,0.6,2.2,1.6,1.6
			C264.5,18.4,270.5,16.4,274.9,17.3"/>
		<path class="st1" d="M313.6,54.9c-4.3-5.9-11.3-5.4-17.1-3.4c-4.4,1.5-8.5,3.8-13,4.7c-10.2,2.1-21.3-3.8-25.8-13.2
			c-2.3-4.8-2.9-10.4-1.9-15.6c0.2-1.2-1.3-1.9-2.1-1c-6.7,8.3-9.9,19.4-8.2,30c2.2,13.3,12.1,25.1,24.8,29.5
			c12.7,4.4,27.8,1.3,37.7-7.8c4.7-4.3,8.4-10.2,7.9-16.9C315.7,59,314.9,56.8,313.6,54.9"/>
	</g>
	<g>
		<g>
			<path class="st0" d="M106,87.5h3.6c1.7,0,2.9,0.3,3.7,0.8s1.1,1.3,1.1,2.4c0,0.8-0.2,1.4-0.6,1.9c-0.4,0.5-1,0.8-1.9,1v0.1
				c1.9,0.3,2.9,1.4,2.9,3.1c0,1.1-0.4,2-1.2,2.7s-1.9,1-3.2,1H106V87.5z M107.5,92.9h2.5c1.1,0,1.8-0.2,2.3-0.5
				c0.5-0.3,0.7-0.9,0.7-1.7c0-0.7-0.3-1.2-0.8-1.6c-0.5-0.3-1.3-0.5-2.5-0.5h-2.2V92.9z M107.5,94.2V99h2.7c1,0,1.8-0.2,2.3-0.6
				c0.5-0.4,0.8-1,0.8-1.9c0-0.8-0.3-1.4-0.8-1.8c-0.5-0.4-1.3-0.6-2.4-0.6H107.5z"/>
			<path class="st0" d="M120.9,93.9l3.4-6.4h1.6l-4.3,7.8v5h-1.5v-4.9l-4.3-7.9h1.6L120.9,93.9z"/>
			<path class="st0" d="M143.5,100.3h-1.5l-2.6-8.6c-0.1-0.4-0.3-0.9-0.4-1.4c-0.2-0.6-0.2-0.9-0.2-1c-0.1,0.8-0.3,1.6-0.6,2.5
				l-2.5,8.5h-1.5l-3.4-12.8h1.6l2,7.9c0.3,1.1,0.5,2.1,0.6,3c0.2-1.1,0.4-2.1,0.7-3.1l2.3-7.8h1.6l2.4,7.9c0.3,0.9,0.5,1.9,0.7,3.1
				c0.1-0.8,0.3-1.8,0.6-3l2-7.9h1.6L143.5,100.3z"/>
			<path class="st0" d="M157,100.3l-1.6-4.1h-5.1l-1.6,4.1h-1.5l5.1-12.9h1.3l5,12.9H157z M154.9,94.8l-1.5-4
				c-0.2-0.5-0.4-1.1-0.6-1.8c-0.1,0.6-0.3,1.2-0.6,1.8l-1.5,4H154.9z"/>
			<path class="st0" d="M164.2,100.3h-1.5V88.8h-4.1v-1.3h9.6v1.3h-4.1V100.3z"/>
			<path class="st0" d="M177.4,96.8c0,1.1-0.4,2-1.2,2.6c-0.8,0.6-1.9,0.9-3.3,0.9c-1.5,0-2.7-0.2-3.5-0.6v-1.4
				c0.5,0.2,1.1,0.4,1.7,0.5c0.6,0.1,1.2,0.2,1.8,0.2c1,0,1.7-0.2,2.2-0.6c0.5-0.4,0.8-0.9,0.8-1.6c0-0.4-0.1-0.8-0.3-1.1
				s-0.5-0.5-0.9-0.8c-0.4-0.2-1.1-0.5-1.9-0.8c-1.2-0.4-2-0.9-2.6-1.5c-0.5-0.6-0.8-1.3-0.8-2.3c0-1,0.4-1.8,1.1-2.4
				c0.7-0.6,1.7-0.9,2.9-0.9c1.3,0,2.4,0.2,3.5,0.7l-0.5,1.3c-1.1-0.4-2.1-0.7-3.1-0.7c-0.8,0-1.4,0.2-1.8,0.5
				c-0.4,0.3-0.7,0.8-0.7,1.4c0,0.4,0.1,0.8,0.2,1.1c0.2,0.3,0.4,0.5,0.8,0.8c0.4,0.2,1,0.5,1.8,0.8c1.3,0.5,2.3,1,2.8,1.5
				C177.2,95.3,177.4,96,177.4,96.8z"/>
			<path class="st0" d="M191.2,93.8c0,2-0.5,3.7-1.6,4.8c-1,1.2-2.5,1.8-4.3,1.8c-1.9,0-3.3-0.6-4.4-1.7s-1.5-2.8-1.5-4.9
				c0-2.1,0.5-3.7,1.5-4.8c1-1.1,2.5-1.7,4.4-1.7c1.8,0,3.3,0.6,4.3,1.8S191.2,91.8,191.2,93.8z M181,93.8c0,1.7,0.4,3,1.1,3.9
				c0.7,0.9,1.8,1.3,3.2,1.3c1.4,0,2.5-0.4,3.2-1.3c0.7-0.9,1.1-2.2,1.1-3.9c0-1.7-0.4-3-1.1-3.9c-0.7-0.9-1.8-1.3-3.2-1.3
				c-1.4,0-2.5,0.4-3.2,1.3C181.3,90.8,181,92.1,181,93.8z"/>
			<path class="st0" d="M204,100.3h-1.7l-7-10.7h-0.1c0.1,1.3,0.1,2.4,0.1,3.5v7.3H194V87.5h1.7l7,10.7h0.1c0-0.2,0-0.7-0.1-1.5
				c0-0.9-0.1-1.5,0-1.8v-7.3h1.4V100.3z"/>
			<path class="st0" d="M219.8,88.6c-1.4,0-2.5,0.5-3.3,1.4c-0.8,0.9-1.2,2.2-1.2,3.8c0,1.7,0.4,3,1.2,3.9c0.8,0.9,1.9,1.4,3.4,1.4
				c0.9,0,1.9-0.2,3.1-0.5v1.3c-0.9,0.3-2,0.5-3.3,0.5c-1.9,0-3.3-0.6-4.4-1.7c-1-1.1-1.5-2.8-1.5-4.9c0-1.3,0.2-2.5,0.7-3.5
				s1.2-1.8,2.1-2.3c0.9-0.5,2-0.8,3.3-0.8c1.3,0,2.5,0.2,3.5,0.7l-0.6,1.3C221.7,88.8,220.7,88.6,219.8,88.6z"/>
		</g>
		<circle class="st0" cx="209.1" cy="93.7" r="1.9"/>
	</g>
	<g>
		<path class="st1" d="M12.4,55.7c0,6.6,2.7,11.6,9.5,11.6c3.2,0,6.5-1.5,8.8-4.5c0.2-0.4,0.7-0.6,1.2-0.6c0.2,0,0.5,0.1,0.7,0.2
			l3.1,1.9c0.4,0.3,0.6,0.7,0.6,1.2c0,0.3-0.1,0.6-0.2,0.8c-2.7,4.7-7.7,7.5-14.2,7.5c-10.5,0-16.6-7.5-16.6-18
			c0-10.6,6.1-18.5,16.6-18.5c6.5,0,11.6,2.9,14.3,7.5c0.2,0.2,0.2,0.5,0.2,0.8c0,0.5-0.2,0.9-0.6,1.2l-3,1.9
			c-0.2,0.1-0.5,0.2-0.7,0.2c-0.6,0-1-0.2-1.2-0.6c-2.2-3-5.5-4.5-8.8-4.5C15.1,43.6,12.4,49.3,12.4,55.7z"/>
		<path class="st1" d="M57.5,37.8c0.7,0,1.4,0.6,1.7,1.4l9.5,32.5c0,0.8-0.7,1.4-1.4,1.4h-4.2c-0.7,0-1.4-0.6-1.6-1.4l-1-4.1H46.9
			l-1.1,4.1c-0.2,0.7-0.9,1.4-1.6,1.4H40c-0.7,0-1.4-0.6-1.4-1.4l9.5-32.5c0.2-0.8,0.9-1.4,1.7-1.4H57.5z M58.4,61.3l-4.7-16.5
			l-4.8,16.5H58.4z"/>
		<path class="st1" d="M74.6,39.2c0-0.4,0.2-0.8,0.5-1.1c0.2-0.2,0.6-0.4,0.9-0.4h4.3c0.4,0,0.8,0.1,1.1,0.4c0.2,0.2,0.4,0.6,0.4,1
			v27.2h14.4c0.4,0,0.8,0.2,1.1,0.5c0.2,0.2,0.3,0.6,0.3,0.9v4c0,0.4-0.1,0.7-0.4,0.9c-0.2,0.2-0.6,0.4-1,0.4H76
			c-0.4,0-0.8-0.2-1.1-0.4c-0.2-0.2-0.4-0.6-0.4-1V39.2z"/>
		<path class="st1" d="M110.6,53l6.8-13.8c0.4-0.7,1.1-1.4,1.8-1.4h4.7c0.7,0,1.4,0.6,1.4,1.4L114.1,62v9.8c0,0.8-0.7,1.4-1.4,1.4
			h-4.3c-0.7,0-1.4-0.6-1.4-1.4V62L95.7,39.2c0-0.8,0.7-1.4,1.4-1.4h4.7c0.7,0,1.4,0.7,1.8,1.4L110.6,53z"/>
		<path class="st1" d="M141.1,37.8c10.5,0,15.2,6.2,15.2,12.9v0.5c0,6.7-4.7,13.1-15.2,13.1h-4.9v7.3c0,0.8-0.7,1.4-1.4,1.4h-4.3
			c-0.7,0-1.4-0.6-1.4-1.4V39.2c0-0.8,0.7-1.4,1.4-1.4H141.1z M136.3,44.1v13.7h4.9c7,0,8-3.3,8-6.6v-0.5c0-3.4-1.1-6.7-8-6.7H136.3
			z"/>
		<path class="st1" d="M184.5,47.6h-4c-0.7,0-1.6-0.7-1.9-1.5c-1.2-2.4-3.8-2.6-7-2.6c-3.7,0-5.7,1.4-5.7,3.7
			c0,5.5,21.2,4.5,21.2,15.6c0,8.5-6,11.1-13.9,11.1c-7.5,0-13.5-2.9-14.2-8.9c0-0.8,0.6-1.7,1.6-1.7h4c0.7,0,1.6,0.6,1.9,1.4
			c1,2.3,4.2,2.9,6.8,2.9c3.2,0,6.8,0,6.8-4.3c0-6.1-21.2-4-21.2-15.9c0-6.2,4.9-10.1,12.8-10.1c7.7,0,13.7,2.8,14.5,8.7
			C186.1,46.7,185.5,47.6,184.5,47.6z"/>
		<path class="st1" d="M190.2,55.7c0-10.6,6.1-18.5,16.5-18.5s16.5,7.9,16.5,18.5c0,10.6-6.1,18-16.5,18S190.2,66.3,190.2,55.7z
			 M216.1,55.7c0-6.5-2.5-12.3-9.4-12.3c-6.8,0-9.4,5.7-9.4,12.3c0,6.7,2.6,11.8,9.4,11.8C213.6,67.5,216.1,62.4,216.1,55.7z"/>
	</g>
</g>
</svg>
